<svg id="Layer_1" enable-background="new 0 0 123.869 123.869" height="512" viewBox="0 0 123.869 123.869" width="512" xmlns="http://www.w3.org/2000/svg"><path d="m84.235 100.769c0 2.263-1.75 4.098-3.909 4.098h-45.273c-2.159 0-3.909-1.835-3.909-4.098v-65.205c0-2.263 1.75-4.098 3.909-4.098h33.546c.35 0 .583.306.583.612v9.665c0 2.997 2.334 5.505 5.251 5.505h9.218c.35 0 .583.306.583.612v52.909z" fill="#0087ff"/><path d="m65.463 31.466c1.732 0 3.136 1.407 3.136 3.143 0 1.736-1.404 3.143-3.136 3.143h-26.639c-.769 0-1.395.71-1.395 1.583v50.695c0 1.736-1.404 3.143-3.136 3.143h-.013c-1.732 0-3.136-1.407-3.136-3.143v-54.545c0-2.22 1.795-4.02 4.01-4.02z" fill="#26a7ff"/><path d="m81.092 65.091c-1.735 0-3.142 1.407-3.142 3.143l-.009 30.346h-43.337c-1.644 0-3.141 1.183-3.305 2.819-.188 1.882 1.284 3.468 3.126 3.468h46.03c3.538-.28 3.832-2.583 3.78-6.217v-30.415c0-1.736-1.407-3.144-3.143-3.144z" fill="#005deb"/><path d="m96.803 88.171c0 2.263-1.75 4.098-3.909 4.098h-45.272c-2.159 0-3.909-1.835-3.909-4.098v-65.205c0-2.263 1.75-4.098 3.909-4.098h33.546c.35 0 .583.306.583.612v9.665c0 2.997 2.334 5.505 5.251 5.505h9.218c.35 0 .583.306.583.612z" fill="#ffcc64"/><path d="m81.669 18.868h-33.946c-2.215 0-4.01 1.8-4.01 4.02v54.545c0 1.736 1.404 3.143 3.136 3.143h.012c1.732 0 3.136-1.407 3.136-3.143v-50.695c0-.873.626-1.583 1.395-1.583h30.277z" fill="#ffe6c2"/><path d="m93.661 52.493c-1.735 0-3.142 1.407-3.142 3.143l-.009 30.347h-43.338c-1.644 0-3.141 1.183-3.305 2.819-.188 1.882 1.284 3.468 3.126 3.468h46.03c3.538-.28 4.021-3.076 3.78-6.217v-30.416c0-1.736-1.407-3.144-3.142-3.144z" fill="#f9b43a"/><path d="m81.476 18.868v10.337c0 2.997 2.334 5.505 5.251 5.505h9.801z" fill="#ffe6c2"/><path d="m85.804 82.953h-31.091c-1.104 0-2-.896-2-2s.896-2 2-2h31.091c1.104 0 2 .896 2 2s-.896 2-2 2z" fill="#fff"/><path d="m85.804 70.719h-31.091c-1.104 0-2-.896-2-2s.896-2 2-2h31.091c1.104 0 2 .896 2 2s-.896 2-2 2z" fill="#fff"/><path d="m85.804 58.485h-31.091c-1.104 0-2-.896-2-2s.896-2 2-2h31.091c1.104 0 2 .896 2 2s-.896 2-2 2z" fill="#fff"/><path d="m85.804 46.252h-31.091c-1.104 0-2-.896-2-2s.896-2 2-2h31.091c1.104 0 2 .896 2 2s-.896 2-2 2z" fill="#fff"/><g fill="#005deb"><path d="m84.668 8.445c2.953 1.249 5.827 2.759 8.542 4.488 2.177 1.385 4.321-1.99 2.148-3.375-2.902-1.848-5.975-3.462-9.132-4.797-1.02-.429-2.191.045-2.621 1.063-.43 1.017.045 2.191 1.063 2.621 2.953 1.249-1.018-.43 0 0z"/><path d="m116.802 42.655c.85 2.431 4.625 1.116 3.777-1.318-1.132-3.241-2.549-6.413-4.213-9.428-.534-.967-1.751-1.318-2.718-.784s-1.318 1.75-.784 2.718c1.556 2.817 2.88 5.782 3.938 8.812.288.824-1.058-3.03 0 0z"/><path d="m46.279 5.94c.172 0 .348-.022.521-.07 3.097-.834 6.292-1.415 9.496-1.728 1.1-.106 1.904-1.084 1.797-2.184-.106-1.1-1.084-1.912-2.184-1.797-3.425.333-6.84.954-10.15 1.847-2.189.59-1.749 3.932.52 3.932z"/><path d="m107.509 25.809c1.604 2.021 4.731-.477 3.131-2.488-2.137-2.688-4.515-5.217-7.067-7.517-.821-.737-2.085-.673-2.825.147-.739.821-.673 2.086.147 2.825 2.389 2.152 4.615 4.518 6.614 7.033.394.497-1.999-2.515 0 0z"/><path d="m65.952 4c3.216.216 6.428.701 9.545 1.44 2.508.584 3.434-3.297.924-3.893-3.333-.79-6.765-1.308-10.201-1.538-1.111-.102-2.056.759-2.129 1.861-.074 1.102.759 2.056 1.861 2.13 3.216.215-1.102-.074 0 0z"/><path d="m123.145 51.335c-.185-1.089-1.221-1.823-2.305-1.641-1.09.184-1.823 1.216-1.641 2.305.494 2.929.668 9.353.668 9.583 0 32.139-25.684 58.286-57.254 58.286-21.897 0-41.931-12.943-51.448-32.707l6.531 3.417c.979.511 2.187.134 2.699-.846.512-.979.134-2.187-.846-2.699l-11.49-6.013c-1.175-.613-2.67.127-2.896 1.428l-2.216 12.649c-.444 2.536 3.496 3.226 3.939.689l1.066-6.086c10.33 20.679 31.524 34.167 54.661 34.167 33.512 0 60.81-27.511 61.234-61.488.098-.235-.135-7.672-.702-11.044-.185-1.089.567 3.372 0 0z"/><path d="m6.645 44.327c.962-3.06 2.194-6.063 3.662-8.926.504-.982.116-2.188-.867-2.691-.983-.505-2.188-.115-2.691.867-1.571 3.063-2.89 6.275-3.92 9.549-.773 2.458 3.04 3.656 3.816 1.201.961-3.06-.27.853 0 0z"/><path d="m2.823 51.488c-1.084-.15-2.103.615-2.252 1.711-.379 2.771-.571 5.603-.571 8.417 0 1.104.896 2 2 2s2-.896 2-2c0-2.633.18-5.282.534-7.876.15-1.094-.616-2.103-1.711-2.252z"/><path d="m12.612 27.621c.872.651 2.15.463 2.799-.408 1.92-2.574 4.072-5.007 6.396-7.23.798-.764.826-2.03.063-2.828-.766-.797-2.03-.825-2.828-.063-2.483 2.377-4.783 4.978-6.837 7.73-.661.885-.478 2.138.407 2.799.359.267-.885-.661 0 0z"/><path d="m28.188 14.252c.388 0 .779-.112 1.123-.347 2.662-1.812 5.49-3.409 8.407-4.75 1.004-.461 1.443-1.648.982-2.652-.462-1.004-1.65-1.444-2.652-.982-3.118 1.434-6.143 3.142-8.987 5.078-1.587 1.08-.798 3.653 1.127 3.653z"/></g></svg>