<svg id="Layer_1" enable-background="new 0 0 68 68" height="512" viewBox="0 0 68 68" width="512" xmlns="http://www.w3.org/2000/svg"><g><path d="m59.7552185 12.2757692h-16.4500122l-3.4720459-6.4229741c-.6109619-1.1300049-1.7919922-1.8340149-3.0769653-1.8340149h-23.6779785c-1.9320068 0-3.4980469 1.5660095-3.4980469 3.4970093v34.440979c0 3.2190247 2.6100464 5.8280029 5.8290405 5.8280029h44.3460083c3.2199707 0 5.8289795-2.6089783 5.8289795-5.8280029v-23.8519902c0-3.2200003-2.6090088-5.8290091-5.8289795-5.8290091" fill="#febb50"/><path d="m15.4095154 44.7967644c-1.1820068 0-2.1390381-.9579773-2.1390381-2.1389771v-30.9830007c0-1.803009 1.4620361-3.2650146 3.2650146-3.2650146h18.1599731c1.1990356 0 2.302002.65802 2.8720093 1.7130127l3.5380249 6.5440054h18.6499634c1.1810303 0 2.1380005.9579773 2.1380005 2.1389771v23.8520203c0 1.1809998-.9569702 2.1389771-2.1380005 2.1389771h-44.3459472z" fill="#fff"/><path d="m59.973053 19.4607658h-24.0490113l-3.4720459-6.4229727c-.6109619-1.1300049-1.7919922-1.8340149-3.0769653-1.8340149h-23.6790161c-1.9309692 0-3.4970093 1.5660095-3.4970093 3.4970093v34.440979c0 3.2190247 2.6090088 5.82901 5.8290405 5.82901h51.9450074c3.2189941 0 5.8279419-2.6099854 5.8279419-5.82901v-23.8519907c0-3.2189941-2.6089478-5.82901-5.8279419-5.82901" fill="#f7ae4d"/><path d="m49.2289734 44.1087456h-.0110474c-.6099854 2.3600159-1.5089722 4.8440247-2.8239746 7.3170166-.4719849.8890076-.9849854 1.776001-1.5740356 2.6640015-.0529785.0899963-.1169434.1910095-.1819458.2810059-1.2090454 1.7989807-2.6640015 3.5749817-4.4089966 5.2609863-1.4290161 1.3820038-3.0490112 2.696991-4.8850098 3.9329987-.7870483.5300026-1.8070068.5630074-2.6040039.0480042-1.1700439-.7540131-2.9990234-2.0650024-4.9880371-3.9810028-5.0789795-4.8779907-11.1999512-13.6650085-10.0979614-27.1860046.1009521-1.2460022 1.1659546-2.2049866 2.414978-2.1579895 1.5800171.0599976 3.8909912-.0610046 6.4630127-.8699951 1.9660034-.6109924 4.0830078-1.6340027 6.1439819-3.2820129.7949829-.6349792 1.8989868-.7009888 2.7550049-.1489868.684021.4400024 1.5859985.9830017 2.6480103 1.5310059 2.2260132 1.1469727 5.1790161 2.3269958 8.3150024 2.6529846.5720215.0620117 1.1519775.0930176 1.7349854.0899963 1.2319946-.0059814 2.2420044.9770203 2.3079834 2.2070007.0130005.2380066.0240479.4920044.03302.7600098.0750122 2.5740049-.085022 6.497009-1.2409668 10.8809812" fill="#43a2ff"/><path d="m33.9999695 59.1395683c-.9490356-.6369934-2.2820435-1.6319885-3.7210083-3.0189819-4.1669922-4.0029907-8.9380493-10.9750061-8.25-21.5930176h.1449585c2.0300293 0 4.0339966-.3069763 5.960022-.9119873 2.1660156-.6740112 4.1989746-1.7330017 6.0419922-3.1480103.723999.45401 1.4760132.882019 2.2390137 1.276001 2.8770142 1.4820251 5.6959839 2.375 8.3789673 2.6530151.4100342.0449829.8260498.0740051 1.2390137.0870056.0010376.0220032.0020142.0439758.0020142.0669861.0570068 1.9360046-.0499878 4.8880005-.8369751 8.2109985l-.197998.7510071c-.5440063 2.1109924-1.3170166 4.1119995-2.2940063 5.947998-.4240112.7990112-.8390503 1.5039978-1.2730103 2.1579895l-.1530151.2369995c-1.0319824 1.5339966-2.2349854 2.9710083-3.5770264 4.2669983-1.1059573 1.0710145-2.3499758 2.084015-3.7029421 3.0169984" fill="#008bea"/><path d="m32.5423279 48.678051c-.3070068 0-.6150513-.1169739-.8490601-.3519897l-2.6429443-2.6430054c-.4700317-.4689941-.4700317-1.2299805 0-1.6989746.4689941-.4690247 1.2299805-.4690247 1.6989746 0l1.7930298 1.7939758 4.7179565-4.7179871c.4689941-.4689941 1.2300415-.4689941 1.6990356 0s.4689941 1.2290039 0 1.6990051l-5.5670166 5.5669861c-.2349853.2350159-.5419921.3519898-.8499755.3519898" fill="#fff"/></g></svg>