<svg id="Layer_1" enable-background="new 0 0 512 512" height="512" viewBox="0 0 512 512" width="512" xmlns="http://www.w3.org/2000/svg"><g clip-rule="evenodd" fill-rule="evenodd"><path d="m334.88 157.01h91.39c3 0 5.44-2.44 5.44-5.44v-30.36c0-19.67-16.1-35.77-35.77-35.77h-30.73c-19.67 0-35.77 16.1-35.77 35.77v30.36c-.01 3 2.43 5.44 5.44 5.44z" fill="#fea832"/><path d="m380.57 72.31c13.92 0 25.26-11.37 25.26-25.28 0-13.89-11.34-25.26-25.26-25.26s-25.26 11.37-25.26 25.26c0 13.91 11.34 25.28 25.26 25.28z" fill="#fbbd80"/><path d="m182.26 157.01h91.42c2.98 0 5.44-2.44 5.44-5.44v-30.36c0-19.67-16.1-35.77-35.8-35.77h-30.7c-19.7 0-35.8 16.1-35.8 35.77v30.36c0 3 2.44 5.44 5.44 5.44z" fill="#fea832"/><path d="m227.95 72.31c13.92 0 25.28-11.37 25.28-25.28 0-13.89-11.37-25.26-25.28-25.26-13.92 0-25.26 11.37-25.26 25.26.01 13.91 11.35 25.28 25.26 25.28z" fill="#fbbd80"/><path d="m251.2 157.01h106.13c3.49 0 6.32-2.83 6.32-6.32v-35.23c0-22.85-18.71-41.56-41.56-41.56h-35.66c-22.85 0-41.56 18.71-41.56 41.56v35.23c.01 3.49 2.87 6.32 6.33 6.32z" fill="#ff4155"/><path d="m304.26 58.65c16.16 0 29.34-13.15 29.34-29.31s-13.18-29.34-29.34-29.34-29.34 13.18-29.34 29.34 13.19 29.31 29.34 29.31z" fill="#fbbd80"/><path d="m431.71 189.64v9.75 15.7l-14.91 4.85-9.33 3.03c-2.69 11.76-7.31 22.79-13.55 32.71l4.45 8.73 7.12 14-11.11 11.08-11.08 11.11-14-7.12-8.73-4.48c-9.92 6.26-20.95 10.88-32.71 13.58l-3.03 9.33-4.85 14.91h-15.7-15.7l-4.85-14.91-3.03-9.33c-11.76-2.69-22.79-7.31-32.71-13.55l-8.73 4.45-13.98 7.12-11.11-11.11-11.11-11.08 7.14-14 4.45-8.73c-6.24-9.92-10.88-20.95-13.58-32.71l-9.3-3.03-14.94-4.85v-15.7-9.75z" fill="#bec7cf"/><path d="m354.1 189.64c.62 3.17.96 6.43.96 9.75 0 28.03-22.73 50.77-50.8 50.77-28.03 0-50.77-22.73-50.77-50.77 0-3.32.31-6.58.94-9.75z" fill="#eaf6ff"/><path d="m84.04 416.41c27.64-8.19 57.15-19.05 84.08-27.81l125.4 37.3 171.24-41.7c46.91-11.42 48.05 30.08 18.99 42.66l-170.67 73.96c-29.34 12.7-58.51 14.57-89.23 5.64l-139.8-40.59v-49.46z" fill="#fbbd80"/><path d="m199.18 430.02 3.52-16.13 125.4 27.18c25.97 5.61 39.8-15.96 30.42-30.98l16.55-4.05c2.3 5.16 3.35 11 2.78 17.35-1.02 11.51-7.48 21.71-17.06 28.06-10.77 7.09-23.78 8.45-36.17 5.75z" fill="#e2aa73"/><path d="m328.1 441.07c34.24 7.4 47.4-32.46 14.03-42.26l-127.39-37.39c-22.65-6.66-43.54-7.31-66.53-2.04l-64.18 14.65v59.56l115.48-20.38z" fill="#fbbd80"/><path d="m18.84 340.04h76.37c5.56 0 10.09 4.51 10.09 10.06v146.47c0 5.53-4.54 10.06-10.09 10.06h-76.37c-5.56 0-10.09-4.54-10.09-10.06v-146.46c0-5.56 4.54-10.07 10.09-10.07z" fill="#0593fc"/><path d="m57.03 393.05c7.48 0 13.58-6.09 13.58-13.58 0-7.48-6.09-13.58-13.58-13.58s-13.58 6.09-13.58 13.58 6.09 13.58 13.58 13.58z" fill="#0577cc"/><path d="m18.84 340.04h17.55c-5.56 0-10.06 4.51-10.06 10.06v146.47c0 5.53 4.51 10.06 10.06 10.06h-17.55c-5.56 0-10.09-4.54-10.09-10.06v-146.46c0-5.56 4.54-10.07 10.09-10.07z" fill="#0584e3"/><path d="m237.56 294.35-12.3 6.26-11.11-11.11-11.11-11.08 7.14-14 4.45-8.73c-6.24-9.92-10.88-20.95-13.58-32.71l-9.3-3.03-14.94-4.85v-15.7-9.75h18.57v9.75 15.7l14.94 4.85 9.33 3.03c2.66 11.76 7.31 22.79 13.55 32.71l-4.45 8.73-7.11 14 11.08 11.08z" fill="#abb3ba"/><path d="m307.15 326.83h-2.89-15.7l-4.85-14.91-3.03-9.33c-8.39-1.93-16.38-4.82-23.9-8.59l1.05-.51 8.73-4.45c9.92 6.24 20.95 10.86 32.71 13.55l3.03 9.33z" fill="#abb3ba"/><path d="m310.47 249.79c-2.04.25-4.11.37-6.21.37-28.03 0-50.77-22.73-50.77-50.77 0-3.32.31-6.58.94-9.75h12.39c-.62 3.17-.94 6.43-.94 9.75 0 25.94 19.45 47.34 44.59 50.4z" fill="#d3dde6"/><path d="m182.26 157.01h14.46c-3 0-5.44-2.44-5.44-5.44v-30.36c0-19.67 16.1-35.77 35.77-35.77h-14.43c-19.7 0-35.8 16.1-35.8 35.77v30.36c0 3 2.44 5.44 5.44 5.44z" fill="#e5972d"/><path d="m251.2 157.01h14.46c-3.46 0-6.32-2.83-6.32-6.32v-35.23c0-22.85 18.71-41.56 41.56-41.56h-14.46c-22.85 0-41.56 18.71-41.56 41.56v35.23c0 3.49 2.86 6.32 6.32 6.32z" fill="#e63b4d"/><g fill="#e2aa73"><path d="m304.26 0c1.28 0 2.52.08 3.74.23-14.43 1.84-25.6 14.17-25.6 29.11 0 14.91 11.17 27.24 25.6 29.08-1.22.17-2.47.26-3.74.26-16.19 0-29.34-13.15-29.34-29.34 0-16.22 13.16-29.34 29.34-29.34z"/><path d="m227.95 21.77c.96 0 1.93.06 2.83.17-12.61 1.42-22.42 12.1-22.42 25.09 0 13.01 9.81 23.7 22.42 25.11-.91.11-1.87.17-2.83.17-13.95 0-25.26-11.31-25.26-25.28.01-13.95 11.32-25.26 25.26-25.26z"/><path d="m380.57 21.77c.96 0 1.9.06 2.83.17-12.61 1.42-22.42 12.1-22.42 25.09 0 13.01 9.81 23.7 22.42 25.11-.94.11-1.87.17-2.83.17-13.95 0-25.26-11.31-25.26-25.28 0-13.95 11.31-25.26 25.26-25.26z"/></g></g></svg>