<svg id="Layer_1" height="512" viewBox="0 0 512 512" width="512" xmlns="http://www.w3.org/2000/svg" data-name="Layer 1"><g fill-rule="evenodd"><path d="m127.069 328.489 259.331-212.958h79.038a46.7 46.7 0 0 1 46.562 46.569v211.087a46.715 46.715 0 0 1 -43.46 46.458v69.955l-59.977-69.846h-234.93a46.7 46.7 0 0 1 -46.564-46.564z" fill="#ffc307"/><path d="m46.564 22.4h291.8a46.7 46.7 0 0 1 46.564 46.564v211.095a46.7 46.7 0 0 1 -46.564 46.564h-234.927l-59.977 69.846v-69.953a46.713 46.713 0 0 1 -43.46-46.457v-211.092a46.7 46.7 0 0 1 46.564-46.567z" fill="#2196f3"/><g fill="#fafafa"><path d="m91.813 137.125a17.067 17.067 0 1 1 0-34.133h201.96a17.067 17.067 0 1 1 0 34.133z"/><path d="m116.245 233.22a17.067 17.067 0 1 1 0-34.133h153.1a17.067 17.067 0 0 1 0 34.133z"/></g></g></svg>