<svg id="Capa_1" enable-background="new 0 0 512 512" height="512" viewBox="0 0 512 512" width="512" xmlns="http://www.w3.org/2000/svg"><g><g><g><g><g><g><path d="m124.039 66.93c-4.303 0-7.791-3.488-7.791-7.791v-18.746c0-16.855 13.712-30.567 30.567-30.567 4.303 0 7.791 3.488 7.791 7.791s-3.488 7.791-7.791 7.791c-8.262 0-14.984 6.722-14.984 14.984v18.746c-.001 4.304-3.488 7.792-7.792 7.792z" fill="#fdf0b2"/></g><g><path d="m307.074 66.93c-4.303 0-7.791-3.488-7.791-7.791v-18.746c0-8.262-6.722-14.984-14.984-14.984-4.303 0-7.791-3.488-7.791-7.791s3.488-7.791 7.791-7.791c16.855 0 30.567 13.712 30.567 30.567v18.746c-.001 4.302-3.489 7.79-7.792 7.79z" fill="#fdf0b2"/></g></g><path d="m273.543 38.405h-115.973c-5.836 0-10.568-4.731-10.568-10.568v-17.27c0-5.836 4.731-10.567 10.568-10.567h115.973c5.836 0 10.568 4.731 10.568 10.568v17.27c-.001 5.836-4.732 10.567-10.568 10.567z" fill="#fcb44d"/><path d="m284.108 10.573v17.267c0 5.833-4.724 10.568-10.568 10.568h-30.234c5.833 0 10.568-4.734 10.568-10.568v-17.267c0-5.844-4.734-10.568-10.568-10.568h30.234c5.844 0 10.568 4.724 10.568 10.568z" fill="#fb9927"/></g><g><path d="m146.814 91.397h-44.985v-22.703c0-5.647 4.578-10.225 10.225-10.225h24.535c5.647 0 10.225 4.578 10.225 10.225z" fill="#fb9927"/></g><g><path d="m329.566 91.397h-44.985v-22.703c0-5.647 4.578-10.225 10.225-10.225h24.535c5.647 0 10.225 4.578 10.225 10.225z" fill="#fb9927"/></g><g><path d="m423.24 191.489v186.401c0 11.677-9.468 21.135-21.135 21.135h-373.098c-11.667 0-21.135-9.458-21.135-21.135v-186.401z" fill="#fcb44d"/><g fill="#fb9927"><path d="m423.24 191.489v102.843c-9.088 5.041-19.539 7.915-30.646 7.915h-117.532c-9.056 24.073-32.316 41.235-59.506 41.235s-50.449-17.162-59.506-41.235h-117.532c-11.106 0-21.558-2.874-30.646-7.915v-102.843z"/><path d="m423.24 191.489v186.401c0 11.677-9.468 21.135-21.135 21.135h-40.326c11.677 0 21.135-9.458 21.135-21.135v-186.401z"/></g></g><g><path d="m392.589 275.833h-354.066c-20.427 0-36.986-16.559-36.986-36.986v-133.563c0-11.673 9.462-21.135 21.135-21.135h385.769c11.673 0 21.135 9.462 21.135 21.135v133.562c0 20.427-16.56 36.987-36.987 36.987z" fill="#fee265"/><path d="m429.58 105.289v133.552c0 20.427-16.559 36.986-36.986 36.986h-40.326c20.427 0 36.986-16.559 36.986-36.986v-133.552c0-11.677-9.458-21.135-21.135-21.135h40.326c11.667 0 21.135 9.458 21.135 21.135z" fill="#fdd330"/></g><path d="m215.556 317.068c-20.517 0-37.149-16.632-37.149-37.149v-33.616c0-5.836 4.731-10.568 10.568-10.568h53.164c5.836 0 10.568 4.731 10.568 10.568v33.616c-.001 20.517-16.634 37.149-37.151 37.149z" fill="#fdf0b2"/></g><g><g><g><g><g><g><g><g><g><g><path d="m507.421 499.577-9.381 9.381c-4.057 4.057-10.634 4.057-14.691 0l-70.135-70.135 24.072-24.061 70.135 70.125c4.057 4.055 4.057 10.633 0 14.69z" fill="#557983"/><g fill="#3f5959"><path d="m467.788 470.671h34.043v31.348h-34.043z" transform="matrix(.707 -.707 .707 .707 -201.901 485.259)"/><path d="m456.766 434.247c-2.401 5.12-5.711 9.909-9.932 14.13-4.175 4.164-8.931 7.509-14.108 9.955l-19.509-19.509 24.062-24.062z"/></g></g><g><path d="m498.783 468.128-32.946 32.946c-3.54 3.54-9.279 3.54-12.819 0l-11.954-11.954c-3.54-3.54-3.54-9.279 0-12.819l32.946-32.946c3.54-3.54 9.279-3.54 12.819 0l11.954 11.954c3.54 3.54 3.54 9.279 0 12.819z" fill="#23f1a8"/><path d="m486.832 443.356 11.954 11.954c3.538 3.538 3.538 9.281 0 12.819l-17.434 17.434c3.538-3.538 3.538-9.281 0-12.819l-11.954-11.954c-3.544-3.544-9.281-3.538-12.819 0l17.434-17.434c3.538-3.538 9.275-3.544 12.819 0z" fill="#26d192"/></g></g><circle cx="341.083" cy="342.625" fill="#a9d3d8" r="127.875"/><path d="m468.956 342.63c0 70.621-57.249 127.871-127.87 127.871-7.143 0-14.159-.59-20.978-1.714 60.641-10.014 106.892-62.679 106.892-126.157 0-63.489-46.251-116.154-106.893-126.169 6.819-1.123 13.835-1.713 20.978-1.713 70.622 0 127.871 57.25 127.871 127.882z" fill="#90bac4"/><g><path d="m430.517 342.624c0 49.812-40.39 90.192-90.202 90.192s-90.192-40.38-90.192-90.192c0-19.229 6.015-37.055 16.279-51.682h147.837c10.263 14.626 16.278 32.453 16.278 51.682z" fill="#fcc16d"/><path d="m430.507 342.634c0 49.802-40.38 90.182-90.182 90.182-6.628 0-13.089-.717-19.302-2.067 40.536-8.841 70.891-44.94 70.891-88.114 0-19.229-6.025-37.055-16.279-51.693h38.593c10.264 14.637 16.279 32.463 16.279 51.692z" fill="#fca62f"/><path d="m420.505 301.332c-14.983-29.039-45.258-48.901-80.186-48.901s-65.203 19.863-80.185 48.901z" fill="#fde784"/><path d="m381.908 301.332h38.591c-14.983-29.038-45.256-48.9-80.177-48.9-6.622 0-13.082.718-19.299 2.072 26.562 5.79 48.744 23.295 60.885 46.828z" fill="#fddd45"/></g></g></g></g></g></g></g></g></g></g><g><path d="m382.914 389.35h-30.646c-4.303 0-7.791-3.488-7.791-7.791s3.488-7.791 7.791-7.791h30.646c4.303 0 7.791 3.488 7.791 7.791s-3.488 7.791-7.791 7.791z" fill="#f98824"/></g><g><path d="m382.914 360.133h-55.226c-4.303 0-7.791-3.488-7.791-7.791s3.488-7.791 7.791-7.791h55.226c4.303 0 7.791 3.488 7.791 7.791s-3.488 7.791-7.791 7.791z" fill="#f98824"/></g></g></svg>